# MagicaVoxel @ ephtracy

# material
mtllib Building1Top.mtl
usemtl palette

# normals
vn -1 0 0
vn 1 0 0
vn 0 0 1
vn 0 0 -1
vn 0 -1 0
vn 0 1 0

# texcoords
vt 0.0332031 0.5
vt 0.0371094 0.5
vt 0.0722656 0.5
vt 0.232422 0.5
vt 0.556641 0.5
vt 0.857422 0.5
vt 0.873047 0.5

# verts
v -5 24 1
v -5 24 -6
v -5 26 1
v -5 26 -6
v -4 23 1
v -4 23 -6
v -4 24 2
v -4 24 1
v -4 24 -6
v -4 24 -7
v -4 26 2
v -4 26 1
v -4 26 -0
v -4 26 -5
v -4 26 -6
v -4 26 -7
v -4 27 -0
v -4 27 -5
v -3 0 1
v -3 0 -6
v -3 12 1
v -3 12 -0
v -3 13 -5
v -3 13 -6
v -3 15 1
v -3 15 -0
v -3 15 -5
v -3 15 -6
v -3 20 1
v -3 20 -6
v -3 21 1
v -3 21 -6
v -3 22 1
v -3 22 -6
v -3 23 2
v -3 23 1
v -3 23 -6
v -3 23 -7
v -3 24 3
v -3 24 2
v -3 24 1
v -3 24 -6
v -3 24 -7
v -3 24 -8
v -3 26 3
v -3 26 2
v -3 26 1
v -3 26 -0
v -3 26 -5
v -3 26 -6
v -3 26 -7
v -3 26 -8
v -3 27 1
v -3 27 -0
v -3 27 -5
v -3 27 -6
v -3 28 -0
v -3 28 -1
v -3 28 -4
v -3 28 -5
v -3 29 -1
v -3 29 -4
v -2 12 1
v -2 12 -0
v -2 13 -5
v -2 13 -6
v -2 15 1
v -2 15 -0
v -2 15 -5
v -2 15 -6
v -2 26 2
v -2 26 1
v -2 26 -6
v -2 26 -7
v -2 27 2
v -2 27 1
v -2 27 -0
v -2 27 -5
v -2 27 -6
v -2 27 -7
v -2 28 1
v -2 28 -0
v -2 28 -1
v -2 28 -4
v -2 28 -5
v -2 28 -6
v -2 29 -0
v -2 29 -1
v -2 29 -4
v -2 29 -5
v -2 30 -1
v -2 30 -4
v -1 28 1
v -1 28 -0
v -1 28 -5
v -1 28 -6
v -1 29 1
v -1 29 -0
v -1 29 -1
v -1 29 -4
v -1 29 -5
v -1 29 -6
v -1 30 -0
v -1 30 -1
v -1 30 -4
v -1 30 -5
v 0 30 -2
v 0 30 -3
v 0 36 -2
v 0 36 -3
v 1 13 -5
v 1 13 -6
v 1 14 -5
v 1 14 -6
v 2 11 -5
v 2 11 -6
v 2 13 -5
v 2 13 -6
v 3 0 -2
v 3 0 -6
v 3 11 -5
v 3 11 -6
v 3 14 -2
v 3 14 -5
v -2 0 -2
v -2 0 -6
v -2 11 -5
v -2 11 -6
v -2 14 -2
v -2 14 -5
v -1 11 -5
v -1 11 -6
v -1 13 -5
v -1 13 -6
v 0 13 -5
v 0 13 -6
v 0 14 -5
v 0 14 -6
v 1 30 -2
v 1 30 -3
v 1 36 -2
v 1 36 -3
v 2 28 1
v 2 28 -0
v 2 28 -5
v 2 28 -6
v 2 29 1
v 2 29 -0
v 2 29 -1
v 2 29 -4
v 2 29 -5
v 2 29 -6
v 2 30 -0
v 2 30 -1
v 2 30 -4
v 2 30 -5
v 3 12 1
v 3 12 -0
v 3 12 -5
v 3 12 -6
v 3 15 1
v 3 15 -0
v 3 15 -5
v 3 15 -6
v 3 26 2
v 3 26 1
v 3 26 -6
v 3 26 -7
v 3 27 2
v 3 27 1
v 3 27 -0
v 3 27 -5
v 3 27 -6
v 3 27 -7
v 3 28 1
v 3 28 -0
v 3 28 -1
v 3 28 -4
v 3 28 -5
v 3 28 -6
v 3 29 -0
v 3 29 -1
v 3 29 -4
v 3 29 -5
v 3 30 -1
v 3 30 -4
v 4 0 1
v 4 0 -6
v 4 12 1
v 4 12 -0
v 4 12 -5
v 4 12 -6
v 4 15 1
v 4 15 -0
v 4 15 -5
v 4 15 -6
v 4 20 1
v 4 20 -6
v 4 21 1
v 4 21 -6
v 4 22 1
v 4 22 -6
v 4 23 2
v 4 23 1
v 4 23 -6
v 4 23 -7
v 4 24 3
v 4 24 2
v 4 24 1
v 4 24 -6
v 4 24 -7
v 4 24 -8
v 4 26 3
v 4 26 2
v 4 26 1
v 4 26 -0
v 4 26 -5
v 4 26 -6
v 4 26 -7
v 4 26 -8
v 4 27 1
v 4 27 -0
v 4 27 -5
v 4 27 -6
v 4 28 -0
v 4 28 -1
v 4 28 -4
v 4 28 -5
v 4 29 -1
v 4 29 -4
v 5 23 1
v 5 23 -6
v 5 24 2
v 5 24 1
v 5 24 -6
v 5 24 -7
v 5 26 2
v 5 26 1
v 5 26 -0
v 5 26 -5
v 5 26 -6
v 5 26 -7
v 5 27 -0
v 5 27 -5
v 6 24 1
v 6 24 -6
v 6 26 1
v 6 26 -6
v -3 24 3
v -3 26 3
v 4 24 3
v 4 26 3
v -4 24 2
v -4 26 2
v -3 23 2
v -3 24 2
v -3 26 2
v -2 26 2
v -2 27 2
v 3 26 2
v 3 27 2
v 4 23 2
v 4 24 2
v 4 26 2
v 5 24 2
v 5 26 2
v -5 24 1
v -5 26 1
v -4 23 1
v -4 24 1
v -4 26 1
v -3 0 1
v -3 12 1
v -3 15 1
v -3 20 1
v -3 21 1
v -3 22 1
v -3 23 1
v -3 24 1
v -3 26 1
v -3 27 1
v -2 12 1
v -2 15 1
v -2 26 1
v -2 27 1
v -2 28 1
v -1 28 1
v -1 29 1
v 2 28 1
v 2 29 1
v 3 12 1
v 3 15 1
v 3 26 1
v 3 27 1
v 3 28 1
v 4 0 1
v 4 12 1
v 4 15 1
v 4 20 1
v 4 21 1
v 4 22 1
v 4 23 1
v 4 24 1
v 4 26 1
v 4 27 1
v 5 23 1
v 5 24 1
v 5 26 1
v 6 24 1
v 6 26 1
v -4 26 -0
v -4 27 -0
v -3 12 -0
v -3 15 -0
v -3 26 -0
v -3 27 -0
v -3 28 -0
v -2 12 -0
v -2 15 -0
v -2 27 -0
v -2 28 -0
v -2 29 -0
v -1 28 -0
v -1 29 -0
v -1 30 -0
v 2 28 -0
v 2 29 -0
v 2 30 -0
v 3 12 -0
v 3 15 -0
v 3 27 -0
v 3 28 -0
v 3 29 -0
v 4 12 -0
v 4 15 -0
v 4 26 -0
v 4 27 -0
v 4 28 -0
v 5 26 -0
v 5 27 -0
v -3 28 -1
v -3 29 -1
v -2 28 -1
v -2 29 -1
v -2 30 -1
v -1 29 -1
v -1 30 -1
v 2 29 -1
v 2 30 -1
v 3 28 -1
v 3 29 -1
v 3 30 -1
v 4 28 -1
v 4 29 -1
v 0 30 -2
v 0 36 -2
v 1 30 -2
v 1 36 -2
v -2 11 -5
v -2 14 -5
v -1 11 -5
v -1 13 -5
v 0 13 -5
v 0 14 -5
v 1 13 -5
v 1 14 -5
v 2 11 -5
v 2 13 -5
v 3 11 -5
v 3 14 -5
v -2 0 -2
v -2 14 -2
v 3 0 -2
v 3 14 -2
v 0 30 -3
v 0 36 -3
v 1 30 -3
v 1 36 -3
v -3 28 -4
v -3 29 -4
v -2 28 -4
v -2 29 -4
v -2 30 -4
v -1 29 -4
v -1 30 -4
v 2 29 -4
v 2 30 -4
v 3 28 -4
v 3 29 -4
v 3 30 -4
v 4 28 -4
v 4 29 -4
v -4 26 -5
v -4 27 -5
v -3 13 -5
v -3 15 -5
v -3 26 -5
v -3 27 -5
v -3 28 -5
v -2 13 -5
v -2 15 -5
v -2 27 -5
v -2 28 -5
v -2 29 -5
v -1 28 -5
v -1 29 -5
v -1 30 -5
v 2 28 -5
v 2 29 -5
v 2 30 -5
v 3 12 -5
v 3 15 -5
v 3 27 -5
v 3 28 -5
v 3 29 -5
v 4 12 -5
v 4 15 -5
v 4 26 -5
v 4 27 -5
v 4 28 -5
v 5 26 -5
v 5 27 -5
v -5 24 -6
v -5 26 -6
v -4 23 -6
v -4 24 -6
v -4 26 -6
v -3 0 -6
v -3 13 -6
v -3 15 -6
v -3 20 -6
v -3 21 -6
v -3 22 -6
v -3 23 -6
v -3 24 -6
v -3 26 -6
v -3 27 -6
v -2 0 -6
v -2 11 -6
v -2 13 -6
v -2 15 -6
v -2 26 -6
v -2 27 -6
v -2 28 -6
v -1 11 -6
v -1 13 -6
v -1 16 -6
v -1 19 -6
v -1 28 -6
v -1 29 -6
v 0 13 -6
v 0 14 -6
v 0 17 -6
v 0 18 -6
v 1 13 -6
v 1 14 -6
v 1 17 -6
v 1 18 -6
v 2 11 -6
v 2 13 -6
v 2 16 -6
v 2 19 -6
v 2 28 -6
v 2 29 -6
v 3 0 -6
v 3 11 -6
v 3 12 -6
v 3 15 -6
v 3 26 -6
v 3 27 -6
v 3 28 -6
v 4 0 -6
v 4 12 -6
v 4 15 -6
v 4 20 -6
v 4 21 -6
v 4 22 -6
v 4 23 -6
v 4 24 -6
v 4 26 -6
v 4 27 -6
v 5 23 -6
v 5 24 -6
v 5 26 -6
v 6 24 -6
v 6 26 -6
v -4 24 -7
v -4 26 -7
v -3 23 -7
v -3 24 -7
v -3 26 -7
v -2 26 -7
v -2 27 -7
v 3 26 -7
v 3 27 -7
v 4 23 -7
v 4 24 -7
v 4 26 -7
v 5 24 -7
v 5 26 -7
v -3 24 -8
v -3 26 -8
v 4 24 -8
v 4 26 -8
v -3 0 1
v 4 0 1
v -2 0 -0
v 3 0 -0
v -2 0 -1
v 3 0 -1
v -2 0 -2
v 3 0 -2
v -3 0 -6
v -2 0 -6
v 3 0 -6
v 4 0 -6
v -2 11 -5
v -1 11 -5
v 2 11 -5
v 3 11 -5
v -2 11 -6
v -1 11 -6
v 2 11 -6
v 3 11 -6
v -1 13 -5
v 0 13 -5
v 1 13 -5
v 2 13 -5
v -1 13 -6
v 0 13 -6
v 1 13 -6
v 2 13 -6
v -2 14 -2
v 3 14 -2
v -2 14 -5
v 0 14 -5
v 1 14 -5
v 3 14 -5
v 0 14 -6
v 1 14 -6
v -3 15 1
v -2 15 1
v 3 15 1
v 4 15 1
v -3 15 -0
v -2 15 -0
v 3 15 -0
v 4 15 -0
v -3 15 -5
v -2 15 -5
v 3 15 -5
v 4 15 -5
v -3 15 -6
v -2 15 -6
v 3 15 -6
v 4 15 -6
v -3 23 2
v 4 23 2
v -4 23 1
v -3 23 1
v 4 23 1
v 5 23 1
v -4 23 -6
v -3 23 -6
v 4 23 -6
v 5 23 -6
v -3 23 -7
v 4 23 -7
v -3 24 3
v 4 24 3
v -4 24 2
v -3 24 2
v 4 24 2
v 5 24 2
v -5 24 1
v -4 24 1
v -3 24 1
v 4 24 1
v 5 24 1
v 6 24 1
v -5 24 -6
v -4 24 -6
v -3 24 -6
v 4 24 -6
v 5 24 -6
v 6 24 -6
v -4 24 -7
v -3 24 -7
v 4 24 -7
v 5 24 -7
v -3 24 -8
v 4 24 -8
v -3 12 1
v -2 12 1
v 3 12 1
v 4 12 1
v -3 12 -0
v -2 12 -0
v 3 12 -0
v 4 12 -0
v 3 12 -5
v 4 12 -5
v 3 12 -6
v 4 12 -6
v -3 13 -5
v -2 13 -5
v -3 13 -6
v -2 13 -6
v -3 26 3
v 4 26 3
v -4 26 2
v -3 26 2
v -2 26 2
v 3 26 2
v 4 26 2
v 5 26 2
v -5 26 1
v -4 26 1
v -3 26 1
v -2 26 1
v 3 26 1
v 4 26 1
v 5 26 1
v 6 26 1
v -4 26 -0
v -3 26 -0
v 4 26 -0
v 5 26 -0
v -4 26 -5
v -3 26 -5
v 4 26 -5
v 5 26 -5
v -5 26 -6
v -4 26 -6
v -3 26 -6
v -2 26 -6
v 3 26 -6
v 4 26 -6
v 5 26 -6
v 6 26 -6
v -4 26 -7
v -3 26 -7
v -2 26 -7
v 3 26 -7
v 4 26 -7
v 5 26 -7
v -3 26 -8
v 4 26 -8
v -2 27 2
v 3 27 2
v -3 27 1
v -2 27 1
v 3 27 1
v 4 27 1
v -4 27 -0
v -3 27 -0
v -2 27 -0
v 3 27 -0
v 4 27 -0
v 5 27 -0
v -4 27 -5
v -3 27 -5
v -2 27 -5
v 3 27 -5
v 4 27 -5
v 5 27 -5
v -3 27 -6
v -2 27 -6
v 3 27 -6
v 4 27 -6
v -2 27 -7
v 3 27 -7
v -2 28 1
v -1 28 1
v 2 28 1
v 3 28 1
v -3 28 -0
v -2 28 -0
v -1 28 -0
v 2 28 -0
v 3 28 -0
v 4 28 -0
v -3 28 -1
v -2 28 -1
v 3 28 -1
v 4 28 -1
v -3 28 -4
v -2 28 -4
v 3 28 -4
v 4 28 -4
v -3 28 -5
v -2 28 -5
v -1 28 -5
v 2 28 -5
v 3 28 -5
v 4 28 -5
v -2 28 -6
v -1 28 -6
v 2 28 -6
v 3 28 -6
v -1 29 1
v 2 29 1
v -2 29 -0
v -1 29 -0
v 2 29 -0
v 3 29 -0
v -3 29 -1
v -2 29 -1
v -1 29 -1
v 2 29 -1
v 3 29 -1
v 4 29 -1
v -3 29 -4
v -2 29 -4
v -1 29 -4
v 2 29 -4
v 3 29 -4
v 4 29 -4
v -2 29 -5
v -1 29 -5
v 2 29 -5
v 3 29 -5
v -1 29 -6
v 2 29 -6
v -1 30 -0
v 2 30 -0
v -2 30 -1
v -1 30 -1
v 2 30 -1
v 3 30 -1
v 0 30 -2
v 1 30 -2
v 0 30 -3
v 1 30 -3
v -2 30 -4
v -1 30 -4
v 2 30 -4
v 3 30 -4
v -1 30 -5
v 2 30 -5
v 0 36 -2
v 1 36 -2
v 0 36 -3
v 1 36 -3

# faces
f 3/3/1 2/3/1 1/3/1
f 4/3/1 2/3/1 3/3/1
f 8/3/1 6/3/1 5/3/1
f 9/3/1 6/3/1 8/3/1
f 11/3/1 8/3/1 7/3/1
f 12/3/1 8/3/1 11/3/1
f 15/3/1 10/3/1 9/3/1
f 16/3/1 10/3/1 15/3/1
f 17/3/1 14/3/1 13/3/1
f 18/3/1 14/3/1 17/3/1
f 21/2/1 20/2/1 19/2/1
f 22/2/1 20/2/1 21/2/1
f 23/2/1 20/2/1 22/2/1
f 24/2/1 20/2/1 23/2/1
f 26/2/1 23/2/1 22/2/1
f 27/2/1 23/2/1 26/2/1
f 29/2/1 26/2/1 25/2/1
f 29/2/1 28/2/1 27/2/1
f 29/2/1 27/2/1 26/2/1
f 30/2/1 28/2/1 29/2/1
f 31/5/1 30/5/1 29/5/1
f 32/5/1 30/5/1 31/5/1
f 33/2/1 32/2/1 31/2/1
f 34/2/1 32/2/1 33/2/1
f 36/3/1 34/3/1 33/3/1
f 37/3/1 34/3/1 36/3/1
f 40/3/1 36/3/1 35/3/1
f 41/3/1 36/3/1 40/3/1
f 42/3/1 38/3/1 37/3/1
f 43/3/1 38/3/1 42/3/1
f 45/3/1 40/3/1 39/3/1
f 46/3/1 40/3/1 45/3/1
f 51/3/1 44/3/1 43/3/1
f 52/3/1 44/3/1 51/3/1
f 53/3/1 48/3/1 47/3/1
f 54/3/1 48/3/1 53/3/1
f 55/3/1 50/3/1 49/3/1
f 56/3/1 50/3/1 55/3/1
f 57/3/1 55/3/1 54/3/1
f 58/3/1 55/3/1 57/3/1
f 59/3/1 55/3/1 58/3/1
f 60/3/1 55/3/1 59/3/1
f 61/3/1 59/3/1 58/3/1
f 62/3/1 59/3/1 61/3/1
f 67/2/1 64/2/1 63/2/1
f 68/2/1 64/2/1 67/2/1
f 69/2/1 66/2/1 65/2/1
f 70/2/1 66/2/1 69/2/1
f 75/3/1 72/3/1 71/3/1
f 76/3/1 72/3/1 75/3/1
f 79/3/1 74/3/1 73/3/1
f 80/3/1 74/3/1 79/3/1
f 81/3/1 77/3/1 76/3/1
f 82/3/1 77/3/1 81/3/1
f 85/3/1 79/3/1 78/3/1
f 86/3/1 79/3/1 85/3/1
f 87/3/1 83/3/1 82/3/1
f 88/3/1 83/3/1 87/3/1
f 89/3/1 85/3/1 84/3/1
f 90/3/1 85/3/1 89/3/1
f 91/3/1 89/3/1 88/3/1
f 92/3/1 89/3/1 91/3/1
f 97/3/1 94/3/1 93/3/1
f 98/3/1 94/3/1 97/3/1
f 101/3/1 96/3/1 95/3/1
f 102/3/1 96/3/1 101/3/1
f 103/3/1 99/3/1 98/3/1
f 104/3/1 99/3/1 103/3/1
f 105/3/1 101/3/1 100/3/1
f 106/3/1 101/3/1 105/3/1
f 109/3/1 108/3/1 107/3/1
f 110/3/1 108/3/1 109/3/1
f 113/2/1 112/2/1 111/2/1
f 114/2/1 112/2/1 113/2/1
f 117/2/1 116/2/1 115/2/1
f 118/2/1 116/2/1 117/2/1
f 121/2/1 120/2/1 119/2/1
f 122/2/1 120/2/1 121/2/1
f 123/2/1 121/2/1 119/2/1
f 124/2/1 121/2/1 123/2/1
f 125/2/2 126/2/2 127/2/2
f 127/2/2 126/2/2 128/2/2
f 125/2/2 127/2/2 129/2/2
f 129/2/2 127/2/2 130/2/2
f 131/2/2 132/2/2 133/2/2
f 133/2/2 132/2/2 134/2/2
f 135/2/2 136/2/2 137/2/2
f 137/2/2 136/2/2 138/2/2
f 139/3/2 140/3/2 141/3/2
f 141/3/2 140/3/2 142/3/2
f 143/3/2 144/3/2 147/3/2
f 147/3/2 144/3/2 148/3/2
f 145/3/2 146/3/2 151/3/2
f 151/3/2 146/3/2 152/3/2
f 148/3/2 149/3/2 153/3/2
f 153/3/2 149/3/2 154/3/2
f 150/3/2 151/3/2 155/3/2
f 155/3/2 151/3/2 156/3/2
f 157/2/2 158/2/2 161/2/2
f 161/2/2 158/2/2 162/2/2
f 159/2/2 160/2/2 163/2/2
f 163/2/2 160/2/2 164/2/2
f 165/3/2 166/3/2 169/3/2
f 169/3/2 166/3/2 170/3/2
f 167/3/2 168/3/2 173/3/2
f 173/3/2 168/3/2 174/3/2
f 170/3/2 171/3/2 175/3/2
f 175/3/2 171/3/2 176/3/2
f 172/3/2 173/3/2 179/3/2
f 179/3/2 173/3/2 180/3/2
f 176/3/2 177/3/2 181/3/2
f 181/3/2 177/3/2 182/3/2
f 178/3/2 179/3/2 183/3/2
f 183/3/2 179/3/2 184/3/2
f 182/3/2 183/3/2 185/3/2
f 185/3/2 183/3/2 186/3/2
f 187/2/2 188/2/2 189/2/2
f 189/2/2 188/2/2 190/2/2
f 190/2/2 188/2/2 191/2/2
f 191/2/2 188/2/2 192/2/2
f 190/2/2 191/2/2 194/2/2
f 194/2/2 191/2/2 195/2/2
f 193/2/2 194/2/2 197/2/2
f 195/2/2 196/2/2 197/2/2
f 194/2/2 195/2/2 197/2/2
f 197/2/2 196/2/2 198/2/2
f 197/5/2 198/5/2 199/5/2
f 199/5/2 198/5/2 200/5/2
f 199/2/2 200/2/2 201/2/2
f 201/2/2 200/2/2 202/2/2
f 201/3/2 202/3/2 204/3/2
f 204/3/2 202/3/2 205/3/2
f 203/3/2 204/3/2 208/3/2
f 208/3/2 204/3/2 209/3/2
f 205/3/2 206/3/2 210/3/2
f 210/3/2 206/3/2 211/3/2
f 207/3/2 208/3/2 213/3/2
f 213/3/2 208/3/2 214/3/2
f 211/3/2 212/3/2 219/3/2
f 219/3/2 212/3/2 220/3/2
f 215/3/2 216/3/2 221/3/2
f 221/3/2 216/3/2 222/3/2
f 217/3/2 218/3/2 223/3/2
f 223/3/2 218/3/2 224/3/2
f 222/3/2 223/3/2 225/3/2
f 225/3/2 223/3/2 226/3/2
f 226/3/2 223/3/2 227/3/2
f 227/3/2 223/3/2 228/3/2
f 226/3/2 227/3/2 229/3/2
f 229/3/2 227/3/2 230/3/2
f 231/3/2 232/3/2 234/3/2
f 234/3/2 232/3/2 235/3/2
f 233/3/2 234/3/2 237/3/2
f 237/3/2 234/3/2 238/3/2
f 235/3/2 236/3/2 241/3/2
f 241/3/2 236/3/2 242/3/2
f 239/3/2 240/3/2 243/3/2
f 243/3/2 240/3/2 244/3/2
f 245/3/2 246/3/2 247/3/2
f 247/3/2 246/3/2 248/3/2
f 251/3/3 250/3/3 249/3/3
f 252/3/3 250/3/3 251/3/3
f 256/3/3 254/3/3 253/3/3
f 257/3/3 254/3/3 256/3/3
f 260/3/3 259/3/3 258/3/3
f 261/3/3 259/3/3 260/3/3
f 262/3/3 256/3/3 255/3/3
f 263/3/3 256/3/3 262/3/3
f 265/3/3 264/3/3 263/3/3
f 266/3/3 264/3/3 265/3/3
f 270/3/3 268/3/3 267/3/3
f 271/3/3 268/3/3 270/3/3
f 278/3/3 270/3/3 269/3/3
f 279/3/3 270/3/3 278/3/3
f 282/2/3 273/2/3 272/2/3
f 283/2/3 275/2/3 274/2/3
f 284/3/3 281/3/3 280/3/3
f 285/3/3 281/3/3 284/3/3
f 287/3/3 286/3/3 285/3/3
f 289/3/3 287/3/3 285/3/3
f 289/3/3 288/3/3 287/3/3
f 290/3/3 288/3/3 289/3/3
f 291/2/3 283/2/3 282/2/3
f 291/2/3 282/2/3 272/2/3
f 292/2/3 275/2/3 283/2/3
f 292/2/3 283/2/3 291/2/3
f 294/3/3 289/3/3 285/3/3
f 295/3/3 289/3/3 294/3/3
f 296/2/3 291/2/3 272/2/3
f 297/2/3 291/2/3 296/2/3
f 298/2/3 275/2/3 292/2/3
f 299/5/3 276/5/3 275/5/3
f 299/2/3 275/2/3 298/2/3
f 300/2/3 277/2/3 276/2/3
f 300/5/3 276/5/3 299/5/3
f 301/3/3 278/3/3 277/3/3
f 301/2/3 277/2/3 300/2/3
f 302/3/3 278/3/3 301/3/3
f 304/3/3 294/3/3 293/3/3
f 305/3/3 294/3/3 304/3/3
f 306/3/3 303/3/3 302/3/3
f 307/3/3 303/3/3 306/3/3
f 309/3/3 308/3/3 307/3/3
f 310/3/3 308/3/3 309/3/3
f 315/3/3 312/3/3 311/3/3
f 316/3/3 312/3/3 315/3/3
f 318/2/3 314/2/3 313/2/3
f 319/2/3 314/2/3 318/2/3
f 320/3/3 317/3/3 316/3/3
f 321/3/3 317/3/3 320/3/3
f 323/3/3 322/3/3 321/3/3
f 324/3/3 322/3/3 323/3/3
f 327/3/3 325/3/3 324/3/3
f 328/3/3 325/3/3 327/3/3
f 332/3/3 327/3/3 326/3/3
f 333/3/3 327/3/3 332/3/3
f 334/2/3 330/2/3 329/2/3
f 335/2/3 330/2/3 334/2/3
f 337/3/3 332/3/3 331/3/3
f 338/3/3 332/3/3 337/3/3
f 339/3/3 337/3/3 336/3/3
f 340/3/3 337/3/3 339/3/3
f 343/3/3 342/3/3 341/3/3
f 344/3/3 342/3/3 343/3/3
f 346/3/3 345/3/3 344/3/3
f 347/3/3 345/3/3 346/3/3
f 351/3/3 349/3/3 348/3/3
f 352/3/3 349/3/3 351/3/3
f 353/3/3 351/3/3 350/3/3
f 354/3/3 351/3/3 353/3/3
f 357/3/3 356/3/3 355/3/3
f 358/3/3 356/3/3 357/3/3
f 361/2/3 360/2/3 359/2/3
f 362/2/3 360/2/3 361/2/3
f 363/2/3 360/2/3 362/2/3
f 364/2/3 360/2/3 363/2/3
f 368/2/3 366/2/3 365/2/3
f 369/2/3 368/2/3 367/2/3
f 370/2/3 366/2/3 368/2/3
f 370/2/3 368/2/3 369/2/3
f 371/7/4 372/7/4 373/7/4
f 373/7/4 372/7/4 374/7/4
f 375/3/4 376/3/4 377/3/4
f 377/3/4 376/3/4 378/3/4
f 379/3/4 380/3/4 381/3/4
f 381/3/4 380/3/4 382/3/4
f 382/3/4 383/3/4 384/3/4
f 384/3/4 383/3/4 385/3/4
f 386/3/4 387/3/4 389/3/4
f 389/3/4 387/3/4 390/3/4
f 388/3/4 389/3/4 391/3/4
f 391/3/4 389/3/4 392/3/4
f 393/3/4 394/3/4 397/3/4
f 397/3/4 394/3/4 398/3/4
f 395/2/4 396/2/4 400/2/4
f 400/2/4 396/2/4 401/2/4
f 398/3/4 399/3/4 402/3/4
f 402/3/4 399/3/4 403/3/4
f 403/3/4 404/3/4 405/3/4
f 405/3/4 404/3/4 406/3/4
f 406/3/4 407/3/4 409/3/4
f 409/3/4 407/3/4 410/3/4
f 408/3/4 409/3/4 414/3/4
f 414/3/4 409/3/4 415/3/4
f 411/2/4 412/2/4 416/2/4
f 416/2/4 412/2/4 417/2/4
f 413/3/4 414/3/4 419/3/4
f 419/3/4 414/3/4 420/3/4
f 418/3/4 419/3/4 421/3/4
f 421/3/4 419/3/4 422/3/4
f 423/3/4 424/3/4 426/3/4
f 426/3/4 424/3/4 427/3/4
f 425/3/4 426/3/4 434/3/4
f 434/3/4 426/3/4 435/3/4
f 428/2/4 429/2/4 438/2/4
f 438/2/4 429/2/4 439/2/4
f 439/2/4 429/2/4 440/2/4
f 430/2/4 431/2/4 441/2/4
f 436/3/4 437/3/4 442/3/4
f 442/3/4 437/3/4 443/3/4
f 440/2/4 441/2/4 445/2/4
f 439/2/4 440/2/4 445/2/4
f 445/2/4 441/2/4 446/2/4
f 441/2/4 431/2/4 447/2/4
f 446/2/4 441/2/4 447/2/4
f 447/2/4 431/2/4 448/2/4
f 443/3/4 444/3/4 449/3/4
f 446/2/4 447/2/4 451/2/4
f 451/2/4 447/2/4 452/2/4
f 447/4/4 448/4/4 453/4/4
f 453/4/4 448/4/4 454/4/4
f 452/2/4 447/2/4 456/2/4
f 453/6/4 454/6/4 457/6/4
f 447/4/4 453/4/4 457/4/4
f 454/4/4 448/4/4 458/4/4
f 457/6/4 454/6/4 458/6/4
f 455/2/4 456/2/4 460/2/4
f 447/4/4 457/4/4 461/4/4
f 456/2/4 447/2/4 461/2/4
f 460/2/4 456/2/4 461/2/4
f 457/4/4 458/4/4 461/4/4
f 448/2/4 431/2/4 462/2/4
f 461/4/4 458/4/4 462/4/4
f 458/4/4 448/4/4 462/4/4
f 449/3/4 450/3/4 463/3/4
f 443/3/4 449/3/4 463/3/4
f 463/3/4 450/3/4 464/3/4
f 460/2/4 461/2/4 466/2/4
f 461/2/4 462/2/4 466/2/4
f 459/2/4 460/2/4 466/2/4
f 466/2/4 462/2/4 467/2/4
f 467/2/4 462/2/4 468/2/4
f 443/3/4 463/3/4 470/3/4
f 470/3/4 463/3/4 471/3/4
f 465/2/4 466/2/4 472/2/4
f 466/2/4 467/2/4 472/2/4
f 472/2/4 467/2/4 473/2/4
f 468/2/4 462/2/4 474/2/4
f 431/5/4 432/5/4 475/5/4
f 474/2/4 462/2/4 475/2/4
f 462/2/4 431/2/4 475/2/4
f 432/2/4 433/2/4 476/2/4
f 475/5/4 432/5/4 476/5/4
f 433/3/4 434/3/4 477/3/4
f 476/2/4 433/2/4 477/2/4
f 477/3/4 434/3/4 478/3/4
f 469/3/4 470/3/4 480/3/4
f 480/3/4 470/3/4 481/3/4
f 478/3/4 479/3/4 482/3/4
f 482/3/4 479/3/4 483/3/4
f 483/3/4 484/3/4 485/3/4
f 485/3/4 484/3/4 486/3/4
f 487/3/4 488/3/4 490/3/4
f 490/3/4 488/3/4 491/3/4
f 492/3/4 493/3/4 494/3/4
f 494/3/4 493/3/4 495/3/4
f 489/3/4 490/3/4 496/3/4
f 496/3/4 490/3/4 497/3/4
f 497/3/4 498/3/4 499/3/4
f 499/3/4 498/3/4 500/3/4
f 501/3/4 502/3/4 503/3/4
f 503/3/4 502/3/4 504/3/4
f 507/2/5 506/2/5 505/2/5
f 508/2/5 506/2/5 507/2/5
f 509/2/5 507/2/5 505/2/5
f 509/1/5 508/1/5 507/1/5
f 510/2/5 506/2/5 508/2/5
f 510/1/5 508/1/5 509/1/5
f 511/2/5 509/2/5 505/2/5
f 511/7/5 510/7/5 509/7/5
f 512/2/5 506/2/5 510/2/5
f 512/7/5 510/7/5 511/7/5
f 513/2/5 511/2/5 505/2/5
f 514/2/5 511/2/5 513/2/5
f 515/2/5 506/2/5 512/2/5
f 516/2/5 506/2/5 515/2/5
f 521/2/5 518/2/5 517/2/5
f 522/2/5 518/2/5 521/2/5
f 523/2/5 520/2/5 519/2/5
f 524/2/5 520/2/5 523/2/5
f 529/2/5 526/2/5 525/2/5
f 530/2/5 526/2/5 529/2/5
f 531/2/5 528/2/5 527/2/5
f 532/2/5 528/2/5 531/2/5
f 535/2/5 534/2/5 533/2/5
f 536/2/5 534/2/5 535/2/5
f 537/2/5 534/2/5 536/2/5
f 538/2/5 534/2/5 537/2/5
f 539/2/5 537/2/5 536/2/5
f 540/2/5 537/2/5 539/2/5
f 545/2/5 542/2/5 541/2/5
f 546/2/5 542/2/5 545/2/5
f 547/2/5 544/2/5 543/2/5
f 548/2/5 544/2/5 547/2/5
f 553/2/5 550/2/5 549/2/5
f 554/2/5 550/2/5 553/2/5
f 555/2/5 552/2/5 551/2/5
f 556/2/5 552/2/5 555/2/5
f 560/3/5 558/3/5 557/3/5
f 561/3/5 558/3/5 560/3/5
f 563/3/5 560/3/5 559/3/5
f 564/3/5 560/3/5 563/3/5
f 565/3/5 562/3/5 561/3/5
f 566/3/5 562/3/5 565/3/5
f 567/3/5 565/3/5 564/3/5
f 568/3/5 565/3/5 567/3/5
f 572/3/5 570/3/5 569/3/5
f 573/3/5 570/3/5 572/3/5
f 576/3/5 572/3/5 571/3/5
f 577/3/5 572/3/5 576/3/5
f 578/3/5 574/3/5 573/3/5
f 579/3/5 574/3/5 578/3/5
f 581/3/5 576/3/5 575/3/5
f 582/3/5 576/3/5 581/3/5
f 585/3/5 580/3/5 579/3/5
f 586/3/5 580/3/5 585/3/5
f 587/3/5 583/3/5 582/3/5
f 588/3/5 583/3/5 587/3/5
f 589/3/5 585/3/5 584/3/5
f 590/3/5 585/3/5 589/3/5
f 591/3/5 589/3/5 588/3/5
f 592/3/5 589/3/5 591/3/5
f 593/2/6 594/2/6 597/2/6
f 597/2/6 594/2/6 598/2/6
f 595/2/6 596/2/6 599/2/6
f 599/2/6 596/2/6 600/2/6
f 601/2/6 602/2/6 603/2/6
f 603/2/6 602/2/6 604/2/6
f 605/2/6 606/2/6 607/2/6
f 607/2/6 606/2/6 608/2/6
f 609/3/6 610/3/6 612/3/6
f 612/3/6 610/3/6 613/3/6
f 613/3/6 610/3/6 614/3/6
f 614/3/6 610/3/6 615/3/6
f 611/3/6 612/3/6 618/3/6
f 612/3/6 613/3/6 618/3/6
f 618/3/6 613/3/6 619/3/6
f 619/3/6 613/3/6 620/3/6
f 614/3/6 615/3/6 621/3/6
f 615/3/6 616/3/6 621/3/6
f 621/3/6 616/3/6 622/3/6
f 622/3/6 616/3/6 623/3/6
f 618/3/6 619/3/6 625/3/6
f 617/3/6 618/3/6 625/3/6
f 625/3/6 619/3/6 626/3/6
f 623/3/6 624/3/6 627/3/6
f 622/3/6 623/3/6 627/3/6
f 627/3/6 624/3/6 628/3/6
f 617/3/6 625/3/6 629/3/6
f 628/3/6 624/3/6 632/3/6
f 629/3/6 630/3/6 633/3/6
f 617/3/6 629/3/6 633/3/6
f 633/3/6 630/3/6 634/3/6
f 634/3/6 630/3/6 635/3/6
f 631/3/6 632/3/6 638/3/6
f 632/3/6 624/3/6 639/3/6
f 638/3/6 632/3/6 639/3/6
f 639/3/6 624/3/6 640/3/6
f 635/3/6 636/3/6 641/3/6
f 634/3/6 635/3/6 641/3/6
f 641/3/6 636/3/6 642/3/6
f 642/3/6 636/3/6 643/3/6
f 637/3/6 638/3/6 644/3/6
f 638/3/6 639/3/6 644/3/6
f 644/3/6 639/3/6 645/3/6
f 645/3/6 639/3/6 646/3/6
f 642/3/6 643/3/6 647/3/6
f 644/3/6 645/3/6 647/3/6
f 643/3/6 644/3/6 647/3/6
f 647/3/6 645/3/6 648/3/6
f 649/3/6 650/3/6 652/3/6
f 652/3/6 650/3/6 653/3/6
f 651/3/6 652/3/6 656/3/6
f 656/3/6 652/3/6 657/3/6
f 653/3/6 654/3/6 658/3/6
f 658/3/6 654/3/6 659/3/6
f 655/3/6 656/3/6 661/3/6
f 661/3/6 656/3/6 662/3/6
f 659/3/6 660/3/6 665/3/6
f 665/3/6 660/3/6 666/3/6
f 662/3/6 663/3/6 667/3/6
f 667/3/6 663/3/6 668/3/6
f 664/3/6 665/3/6 669/3/6
f 669/3/6 665/3/6 670/3/6
f 668/3/6 669/3/6 671/3/6
f 671/3/6 669/3/6 672/3/6
f 673/3/6 674/3/6 678/3/6
f 678/3/6 674/3/6 679/3/6
f 675/3/6 676/3/6 680/3/6
f 680/3/6 676/3/6 681/3/6
f 677/3/6 678/3/6 683/3/6
f 683/3/6 678/3/6 684/3/6
f 681/3/6 682/3/6 685/3/6
f 685/3/6 682/3/6 686/3/6
f 687/3/6 688/3/6 691/3/6
f 691/3/6 688/3/6 692/3/6
f 689/3/6 690/3/6 695/3/6
f 695/3/6 690/3/6 696/3/6
f 692/3/6 693/3/6 697/3/6
f 697/3/6 693/3/6 698/3/6
f 694/3/6 695/3/6 699/3/6
f 699/3/6 695/3/6 700/3/6
f 701/3/6 702/3/6 704/3/6
f 704/3/6 702/3/6 705/3/6
f 703/3/6 704/3/6 708/3/6
f 708/3/6 704/3/6 709/3/6
f 705/3/6 706/3/6 710/3/6
f 710/3/6 706/3/6 711/3/6
f 707/3/6 708/3/6 713/3/6
f 713/3/6 708/3/6 714/3/6
f 711/3/6 712/3/6 717/3/6
f 717/3/6 712/3/6 718/3/6
f 714/3/6 715/3/6 719/3/6
f 719/3/6 715/3/6 720/3/6
f 716/3/6 717/3/6 721/3/6
f 721/3/6 717/3/6 722/3/6
f 720/3/6 721/3/6 723/3/6
f 723/3/6 721/3/6 724/3/6
f 725/3/6 726/3/6 728/3/6
f 728/3/6 726/3/6 729/3/6
f 727/3/6 728/3/6 731/3/6
f 729/3/6 730/3/6 731/3/6
f 728/3/6 729/3/6 731/3/6
f 731/3/6 730/3/6 732/3/6
f 727/3/6 731/3/6 733/3/6
f 732/3/6 730/3/6 734/3/6
f 727/3/6 733/3/6 735/3/6
f 733/3/6 734/3/6 735/3/6
f 735/3/6 734/3/6 736/3/6
f 734/3/6 730/3/6 737/3/6
f 736/3/6 734/3/6 737/3/6
f 737/3/6 730/3/6 738/3/6
f 736/3/6 737/3/6 739/3/6
f 739/3/6 737/3/6 740/3/6
f 741/3/6 742/3/6 743/3/6
f 743/3/6 742/3/6 744/3/6
