# MagicaVoxel @ ephtracy

# material
mtllib Building2Top.mtl
usemtl palette

# normals
vn -1 0 0
vn 1 0 0
vn 0 0 1
vn 0 0 -1
vn 0 -1 0
vn 0 1 0

# texcoords
vt 0.306641 0.5
vt 0.853516 0.5
vt 0.955078 0.5
vt 0.970703 0.5

# verts
v -6.5 0 7.5
v -6.5 0 -4.5
v -6.5 3 5.5
v -6.5 3 -2.5
v -6.5 4 5.5
v -6.5 4 -2.5
v -6.5 5 4.5
v -6.5 5 -1.5
v -6.5 6 4.5
v -6.5 6 -1.5
v -6.5 7 5.5
v -6.5 7 -2.5
v -6.5 8 5.5
v -6.5 8 -2.5
v -6.5 9 6.5
v -6.5 9 3.5
v -6.5 9 -0.5
v -6.5 9 -3.5
v -6.5 10 6.5
v -6.5 10 4.5
v -6.5 10 2.5
v -6.5 10 0.5
v -6.5 10 -1.5
v -6.5 10 -3.5
v -6.5 13 2.5
v -6.5 13 0.5
v -6.5 14 7.5
v -6.5 14 4.5
v -6.5 14 3.5
v -6.5 14 -0.5
v -6.5 14 -1.5
v -6.5 14 -4.5
v -6.5 15 7.5
v -6.5 15 -4.5
v -5.5 0 8.5
v -5.5 0 7.5
v -5.5 0 -4.5
v -5.5 0 -5.5
v -5.5 14 8.5
v -5.5 14 7.5
v -5.5 14 -4.5
v -5.5 14 -5.5
v -5.5 15 8.5
v -5.5 15 7.5
v -5.5 15 -3.5
v -5.5 15 -4.5
v -5.5 15 -5.5
v -5.5 16 7.5
v -5.5 16 -3.5
v -4.5 15 -3.5
v -4.5 15 -4.5
v -4.5 16 5.5
v -4.5 16 -2.5
v -4.5 16 -3.5
v -4.5 16 -4.5
v -4.5 17 5.5
v -4.5 17 -2.5
v -3.5 16 6.5
v -3.5 16 5.5
v -3.5 16 -2.5
v -3.5 16 -3.5
v -3.5 17 6.5
v -3.5 17 5.5
v -3.5 17 4.5
v -3.5 17 -1.5
v -3.5 17 -2.5
v -3.5 17 -3.5
v -3.5 18 4.5
v -3.5 18 -1.5
v -2.5 17 5.5
v -2.5 17 4.5
v -2.5 17 -1.5
v -2.5 17 -2.5
v -2.5 18 5.5
v -2.5 18 4.5
v -2.5 18 3.5
v -2.5 18 -0.5
v -2.5 18 -1.5
v -2.5 18 -2.5
v -2.5 19 3.5
v -2.5 19 -0.5
v -1.5 18 4.5
v -1.5 18 3.5
v -1.5 18 -0.5
v -1.5 18 -1.5
v -1.5 19 4.5
v -1.5 19 3.5
v -1.5 19 -0.5
v -1.5 19 -1.5
v -0.5 19 2.5
v -0.5 19 0.5
v -0.5 25 2.5
v -0.5 25 0.5
v 1.5 19 2.5
v 1.5 19 0.5
v 1.5 25 2.5
v 1.5 25 0.5
v 2.5 18 4.5
v 2.5 18 3.5
v 2.5 18 -0.5
v 2.5 18 -1.5
v 2.5 19 4.5
v 2.5 19 3.5
v 2.5 19 -0.5
v 2.5 19 -1.5
v 3.5 17 5.5
v 3.5 17 4.5
v 3.5 17 -1.5
v 3.5 17 -2.5
v 3.5 18 5.5
v 3.5 18 4.5
v 3.5 18 3.5
v 3.5 18 -0.5
v 3.5 18 -1.5
v 3.5 18 -2.5
v 3.5 19 3.5
v 3.5 19 -0.5
v 4.5 16 6.5
v 4.5 16 5.5
v 4.5 16 -2.5
v 4.5 16 -3.5
v 4.5 17 6.5
v 4.5 17 5.5
v 4.5 17 4.5
v 4.5 17 -1.5
v 4.5 17 -2.5
v 4.5 17 -3.5
v 4.5 18 4.5
v 4.5 18 -1.5
v 5.5 15 7.5
v 5.5 15 6.5
v 5.5 15 -3.5
v 5.5 15 -4.5
v 5.5 16 7.5
v 5.5 16 6.5
v 5.5 16 5.5
v 5.5 16 -2.5
v 5.5 16 -3.5
v 5.5 16 -4.5
v 5.5 17 5.5
v 5.5 17 -2.5
v 6.5 0 8.5
v 6.5 0 7.5
v 6.5 0 -4.5
v 6.5 0 -5.5
v 6.5 14 8.5
v 6.5 14 7.5
v 6.5 14 -4.5
v 6.5 14 -5.5
v 6.5 15 8.5
v 6.5 15 7.5
v 6.5 15 6.5
v 6.5 15 -3.5
v 6.5 15 -4.5
v 6.5 15 -5.5
v 6.5 16 6.5
v 6.5 16 -3.5
v 7.5 0 7.5
v 7.5 0 -4.5
v 7.5 4 3.5
v 7.5 4 2.5
v 7.5 5 -0.5
v 7.5 5 -1.5
v 7.5 7 4.5
v 7.5 7 3.5
v 7.5 7 2.5
v 7.5 8 -0.5
v 7.5 8 -1.5
v 7.5 8 -2.5
v 7.5 10 4.5
v 7.5 10 3.5
v 7.5 10 2.5
v 7.5 10 1.5
v 7.5 11 1.5
v 7.5 11 -1.5
v 7.5 11 -2.5
v 7.5 12 2.5
v 7.5 12 -1.5
v 7.5 14 7.5
v 7.5 14 -4.5
v 7.5 15 7.5
v 7.5 15 -4.5
v -5.5 0 8.5
v -5.5 14 8.5
v -5.5 15 8.5
v -4.5 9 8.5
v -4.5 10 8.5
v -3.5 3 8.5
v -3.5 4 8.5
v -3.5 7 8.5
v -3.5 8 8.5
v -2.5 5 8.5
v -2.5 6 8.5
v -2.5 10 8.5
v -2.5 14 8.5
v -1.5 9 8.5
v -1.5 14 8.5
v -0.5 10 8.5
v -0.5 13 8.5
v 1.5 10 8.5
v 1.5 13 8.5
v 2.5 9 8.5
v 2.5 14 8.5
v 3.5 5 8.5
v 3.5 6 8.5
v 3.5 10 8.5
v 3.5 14 8.5
v 4.5 3 8.5
v 4.5 4 8.5
v 4.5 7 8.5
v 4.5 8 8.5
v 5.5 9 8.5
v 5.5 10 8.5
v 6.5 0 8.5
v 6.5 14 8.5
v 6.5 15 8.5
v -6.5 0 7.5
v -6.5 14 7.5
v -6.5 15 7.5
v -5.5 0 7.5
v -5.5 14 7.5
v -5.5 15 7.5
v -5.5 16 7.5
v 5.5 15 7.5
v 5.5 16 7.5
v 6.5 0 7.5
v 6.5 14 7.5
v 6.5 15 7.5
v 7.5 0 7.5
v 7.5 14 7.5
v 7.5 15 7.5
v -3.5 16 6.5
v -3.5 17 6.5
v 4.5 16 6.5
v 4.5 17 6.5
v 5.5 15 6.5
v 5.5 16 6.5
v 6.5 15 6.5
v 6.5 16 6.5
v -4.5 16 5.5
v -4.5 17 5.5
v -3.5 16 5.5
v -3.5 17 5.5
v -2.5 17 5.5
v -2.5 18 5.5
v 3.5 17 5.5
v 3.5 18 5.5
v 4.5 16 5.5
v 4.5 17 5.5
v 5.5 16 5.5
v 5.5 17 5.5
v -3.5 17 4.5
v -3.5 18 4.5
v -2.5 17 4.5
v -2.5 18 4.5
v -1.5 18 4.5
v -1.5 19 4.5
v 2.5 18 4.5
v 2.5 19 4.5
v 3.5 17 4.5
v 3.5 18 4.5
v 4.5 17 4.5
v 4.5 18 4.5
v -2.5 18 3.5
v -2.5 19 3.5
v -1.5 18 3.5
v -1.5 19 3.5
v 2.5 18 3.5
v 2.5 19 3.5
v 3.5 18 3.5
v 3.5 19 3.5
v -0.5 19 2.5
v -0.5 25 2.5
v 1.5 19 2.5
v 1.5 25 2.5
v -0.5 19 0.5
v -0.5 25 0.5
v 1.5 19 0.5
v 1.5 25 0.5
v -2.5 18 -0.5
v -2.5 19 -0.5
v -1.5 18 -0.5
v -1.5 19 -0.5
v 2.5 18 -0.5
v 2.5 19 -0.5
v 3.5 18 -0.5
v 3.5 19 -0.5
v -3.5 17 -1.5
v -3.5 18 -1.5
v -2.5 17 -1.5
v -2.5 18 -1.5
v -1.5 18 -1.5
v -1.5 19 -1.5
v 2.5 18 -1.5
v 2.5 19 -1.5
v 3.5 17 -1.5
v 3.5 18 -1.5
v 4.5 17 -1.5
v 4.5 18 -1.5
v -4.5 16 -2.5
v -4.5 17 -2.5
v -3.5 16 -2.5
v -3.5 17 -2.5
v -2.5 17 -2.5
v -2.5 18 -2.5
v 3.5 17 -2.5
v 3.5 18 -2.5
v 4.5 16 -2.5
v 4.5 17 -2.5
v 5.5 16 -2.5
v 5.5 17 -2.5
v -5.5 15 -3.5
v -5.5 16 -3.5
v -4.5 15 -3.5
v -4.5 16 -3.5
v -3.5 16 -3.5
v -3.5 17 -3.5
v 4.5 16 -3.5
v 4.5 17 -3.5
v 5.5 15 -3.5
v 5.5 16 -3.5
v 6.5 15 -3.5
v 6.5 16 -3.5
v -6.5 0 -4.5
v -6.5 14 -4.5
v -6.5 15 -4.5
v -5.5 0 -4.5
v -5.5 14 -4.5
v -5.5 15 -4.5
v -4.5 15 -4.5
v -4.5 16 -4.5
v 5.5 15 -4.5
v 5.5 16 -4.5
v 6.5 0 -4.5
v 6.5 14 -4.5
v 6.5 15 -4.5
v 7.5 0 -4.5
v 7.5 14 -4.5
v 7.5 15 -4.5
v -5.5 0 -5.5
v -5.5 14 -5.5
v -5.5 15 -5.5
v -3.5 10 -5.5
v -3.5 12 -5.5
v -2.5 5 -5.5
v -2.5 7 -5.5
v -2.5 8 -5.5
v -2.5 10 -5.5
v -2.5 12 -5.5
v -1.5 5 -5.5
v -1.5 7 -5.5
v -1.5 8 -5.5
v -1.5 9 -5.5
v -1.5 10 -5.5
v -0.5 7 -5.5
v -0.5 9 -5.5
v -0.5 11 -5.5
v 0.5 2 -5.5
v 0.5 4 -5.5
v 0.5 9 -5.5
v 0.5 11 -5.5
v 1.5 2 -5.5
v 1.5 4 -5.5
v 1.5 6 -5.5
v 2.5 4 -5.5
v 2.5 6 -5.5
v 2.5 12 -5.5
v 2.5 14 -5.5
v 3.5 9 -5.5
v 3.5 12 -5.5
v 3.5 14 -5.5
v 4.5 9 -5.5
v 4.5 12 -5.5
v 6.5 0 -5.5
v 6.5 14 -5.5
v 6.5 15 -5.5
v -5.5 0 8.5
v 6.5 0 8.5
v -6.5 0 7.5
v -5.5 0 7.5
v 6.5 0 7.5
v 7.5 0 7.5
v -6.5 0 -4.5
v -5.5 0 -4.5
v 6.5 0 -4.5
v 7.5 0 -4.5
v -5.5 0 -5.5
v 6.5 0 -5.5
v -5.5 15 8.5
v 6.5 15 8.5
v -6.5 15 7.5
v -5.5 15 7.5
v 5.5 15 7.5
v 6.5 15 7.5
v 7.5 15 7.5
v 5.5 15 6.5
v 6.5 15 6.5
v -5.5 15 -3.5
v -4.5 15 -3.5
v 5.5 15 -3.5
v 6.5 15 -3.5
v -6.5 15 -4.5
v -5.5 15 -4.5
v -4.5 15 -4.5
v 5.5 15 -4.5
v 6.5 15 -4.5
v 7.5 15 -4.5
v -5.5 15 -5.5
v 6.5 15 -5.5
v -5.5 16 7.5
v 5.5 16 7.5
v -3.5 16 6.5
v 4.5 16 6.5
v 5.5 16 6.5
v 6.5 16 6.5
v -4.5 16 5.5
v -3.5 16 5.5
v 4.5 16 5.5
v 5.5 16 5.5
v -4.5 16 -2.5
v -3.5 16 -2.5
v 4.5 16 -2.5
v 5.5 16 -2.5
v -5.5 16 -3.5
v -4.5 16 -3.5
v -3.5 16 -3.5
v 4.5 16 -3.5
v 5.5 16 -3.5
v 6.5 16 -3.5
v -4.5 16 -4.5
v 5.5 16 -4.5
v -3.5 17 6.5
v 4.5 17 6.5
v -4.5 17 5.5
v -3.5 17 5.5
v -2.5 17 5.5
v 3.5 17 5.5
v 4.5 17 5.5
v 5.5 17 5.5
v -3.5 17 4.5
v -2.5 17 4.5
v 3.5 17 4.5
v 4.5 17 4.5
v -3.5 17 -1.5
v -2.5 17 -1.5
v 3.5 17 -1.5
v 4.5 17 -1.5
v -4.5 17 -2.5
v -3.5 17 -2.5
v -2.5 17 -2.5
v 3.5 17 -2.5
v 4.5 17 -2.5
v 5.5 17 -2.5
v -3.5 17 -3.5
v 4.5 17 -3.5
v -2.5 18 5.5
v 3.5 18 5.5
v -3.5 18 4.5
v -2.5 18 4.5
v -1.5 18 4.5
v 2.5 18 4.5
v 3.5 18 4.5
v 4.5 18 4.5
v -2.5 18 3.5
v -1.5 18 3.5
v 2.5 18 3.5
v 3.5 18 3.5
v -2.5 18 -0.5
v -1.5 18 -0.5
v 2.5 18 -0.5
v 3.5 18 -0.5
v -3.5 18 -1.5
v -2.5 18 -1.5
v -1.5 18 -1.5
v 2.5 18 -1.5
v 3.5 18 -1.5
v 4.5 18 -1.5
v -2.5 18 -2.5
v 3.5 18 -2.5
v -1.5 19 4.5
v 2.5 19 4.5
v -2.5 19 3.5
v -1.5 19 3.5
v 2.5 19 3.5
v 3.5 19 3.5
v -0.5 19 2.5
v 1.5 19 2.5
v -0.5 19 0.5
v 1.5 19 0.5
v -2.5 19 -0.5
v -1.5 19 -0.5
v 2.5 19 -0.5
v 3.5 19 -0.5
v -1.5 19 -1.5
v 2.5 19 -1.5
v -0.5 25 2.5
v 1.5 25 2.5
v -0.5 25 0.5
v 1.5 25 0.5

# faces
f 3/4/1 2/4/1 1/4/1
f 4/4/1 2/4/1 3/4/1
f 5/4/1 3/4/1 1/4/1
f 5/3/1 4/3/1 3/3/1
f 6/4/1 2/4/1 4/4/1
f 6/3/1 4/3/1 5/3/1
f 7/4/1 6/4/1 5/4/1
f 8/4/1 6/4/1 7/4/1
f 9/4/1 7/4/1 5/4/1
f 9/3/1 8/3/1 7/3/1
f 10/4/1 6/4/1 8/4/1
f 10/3/1 8/3/1 9/3/1
f 11/4/1 5/4/1 1/4/1
f 11/4/1 9/4/1 5/4/1
f 11/4/1 10/4/1 9/4/1
f 12/4/1 6/4/1 10/4/1
f 12/4/1 10/4/1 11/4/1
f 12/4/1 2/4/1 6/4/1
f 13/4/1 11/4/1 1/4/1
f 13/3/1 12/3/1 11/3/1
f 14/4/1 2/4/1 12/4/1
f 14/3/1 12/3/1 13/3/1
f 15/4/1 13/4/1 1/4/1
f 15/4/1 14/4/1 13/4/1
f 16/4/1 14/4/1 15/4/1
f 17/4/1 14/4/1 16/4/1
f 18/4/1 2/4/1 14/4/1
f 18/4/1 14/4/1 17/4/1
f 19/4/1 15/4/1 1/4/1
f 19/3/1 16/3/1 15/3/1
f 20/3/1 16/3/1 19/3/1
f 21/4/1 17/4/1 16/4/1
f 22/4/1 17/4/1 21/4/1
f 23/3/1 18/3/1 17/3/1
f 24/4/1 2/4/1 18/4/1
f 24/3/1 18/3/1 23/3/1
f 25/4/1 21/4/1 16/4/1
f 25/3/1 22/3/1 21/3/1
f 26/4/1 17/4/1 22/4/1
f 26/3/1 22/3/1 25/3/1
f 27/4/1 19/4/1 1/4/1
f 27/4/1 20/4/1 19/4/1
f 28/3/1 16/3/1 20/3/1
f 28/4/1 20/4/1 27/4/1
f 29/4/1 25/4/1 16/4/1
f 29/3/1 16/3/1 28/3/1
f 29/4/1 26/4/1 25/4/1
f 30/3/1 23/3/1 17/3/1
f 30/4/1 26/4/1 29/4/1
f 30/4/1 17/4/1 26/4/1
f 31/4/1 24/4/1 23/4/1
f 31/3/1 23/3/1 30/3/1
f 32/4/1 2/4/1 24/4/1
f 32/4/1 24/4/1 31/4/1
f 33/2/1 29/2/1 28/2/1
f 33/2/1 28/2/1 27/2/1
f 33/2/1 32/2/1 31/2/1
f 33/2/1 30/2/1 29/2/1
f 33/2/1 31/2/1 30/2/1
f 34/2/1 32/2/1 33/2/1
f 39/4/1 36/4/1 35/4/1
f 40/4/1 36/4/1 39/4/1
f 41/4/1 38/4/1 37/4/1
f 42/4/1 38/4/1 41/4/1
f 43/2/1 40/2/1 39/2/1
f 44/2/1 40/2/1 43/2/1
f 46/2/1 42/2/1 41/2/1
f 47/2/1 42/2/1 46/2/1
f 48/2/1 45/2/1 44/2/1
f 49/2/1 45/2/1 48/2/1
f 54/2/1 51/2/1 50/2/1
f 55/2/1 51/2/1 54/2/1
f 56/2/1 53/2/1 52/2/1
f 57/2/1 53/2/1 56/2/1
f 62/2/1 59/2/1 58/2/1
f 63/2/1 59/2/1 62/2/1
f 66/2/1 61/2/1 60/2/1
f 67/2/1 61/2/1 66/2/1
f 68/2/1 65/2/1 64/2/1
f 69/2/1 65/2/1 68/2/1
f 74/2/1 71/2/1 70/2/1
f 75/2/1 71/2/1 74/2/1
f 78/2/1 73/2/1 72/2/1
f 79/2/1 73/2/1 78/2/1
f 80/2/1 77/2/1 76/2/1
f 81/2/1 77/2/1 80/2/1
f 86/2/1 83/2/1 82/2/1
f 87/2/1 83/2/1 86/2/1
f 88/2/1 85/2/1 84/2/1
f 89/2/1 85/2/1 88/2/1
f 92/2/1 91/2/1 90/2/1
f 93/2/1 91/2/1 92/2/1
f 94/2/2 95/2/2 96/2/2
f 96/2/2 95/2/2 97/2/2
f 98/2/2 99/2/2 102/2/2
f 102/2/2 99/2/2 103/2/2
f 100/2/2 101/2/2 104/2/2
f 104/2/2 101/2/2 105/2/2
f 106/2/2 107/2/2 110/2/2
f 110/2/2 107/2/2 111/2/2
f 108/2/2 109/2/2 114/2/2
f 114/2/2 109/2/2 115/2/2
f 112/2/2 113/2/2 116/2/2
f 116/2/2 113/2/2 117/2/2
f 118/2/2 119/2/2 122/2/2
f 122/2/2 119/2/2 123/2/2
f 120/2/2 121/2/2 126/2/2
f 126/2/2 121/2/2 127/2/2
f 124/2/2 125/2/2 128/2/2
f 128/2/2 125/2/2 129/2/2
f 130/2/2 131/2/2 134/2/2
f 134/2/2 131/2/2 135/2/2
f 132/2/2 133/2/2 138/2/2
f 138/2/2 133/2/2 139/2/2
f 136/2/2 137/2/2 140/2/2
f 140/2/2 137/2/2 141/2/2
f 142/4/2 143/4/2 146/4/2
f 146/4/2 143/4/2 147/4/2
f 144/4/2 145/4/2 148/4/2
f 148/4/2 145/4/2 149/4/2
f 146/2/2 147/2/2 150/2/2
f 150/2/2 147/2/2 151/2/2
f 148/2/2 149/2/2 154/2/2
f 154/2/2 149/2/2 155/2/2
f 152/2/2 153/2/2 156/2/2
f 156/2/2 153/2/2 157/2/2
f 158/4/2 159/4/2 160/4/2
f 160/4/2 159/4/2 161/4/2
f 161/4/2 159/4/2 162/4/2
f 162/4/2 159/4/2 163/4/2
f 158/4/2 160/4/2 164/4/2
f 160/3/2 161/3/2 165/3/2
f 164/4/2 160/4/2 165/4/2
f 161/4/2 162/4/2 166/4/2
f 165/3/2 161/3/2 166/3/2
f 162/3/2 163/3/2 167/3/2
f 166/4/2 162/4/2 167/4/2
f 165/4/2 166/4/2 167/4/2
f 163/4/2 159/4/2 168/4/2
f 167/3/2 163/3/2 168/3/2
f 168/4/2 159/4/2 169/4/2
f 158/4/2 164/4/2 170/4/2
f 164/3/2 165/3/2 170/3/2
f 165/4/2 167/4/2 171/4/2
f 170/3/2 165/3/2 171/3/2
f 167/4/2 168/4/2 171/4/2
f 171/4/2 168/4/2 172/4/2
f 172/4/2 168/4/2 173/4/2
f 172/3/2 173/3/2 174/3/2
f 173/4/2 168/4/2 174/4/2
f 168/3/2 169/3/2 175/3/2
f 174/4/2 168/4/2 175/4/2
f 169/4/2 159/4/2 176/4/2
f 175/3/2 169/3/2 176/3/2
f 174/3/2 175/3/2 177/3/2
f 172/3/2 174/3/2 177/3/2
f 170/4/2 171/4/2 177/4/2
f 171/4/2 172/4/2 177/4/2
f 175/4/2 176/4/2 178/4/2
f 177/3/2 175/3/2 178/3/2
f 158/4/2 170/4/2 179/4/2
f 170/4/2 177/4/2 179/4/2
f 177/4/2 178/4/2 179/4/2
f 178/4/2 176/4/2 180/4/2
f 179/4/2 178/4/2 180/4/2
f 176/4/2 159/4/2 180/4/2
f 179/2/2 180/2/2 181/2/2
f 181/2/2 180/2/2 182/2/2
f 186/4/3 184/4/3 183/4/3
f 187/4/3 184/4/3 186/4/3
f 188/4/3 186/4/3 183/4/3
f 189/4/3 186/4/3 188/4/3
f 190/4/3 186/4/3 189/4/3
f 191/4/3 186/4/3 190/4/3
f 192/4/3 190/4/3 189/4/3
f 193/4/3 190/4/3 192/4/3
f 194/4/3 184/4/3 187/4/3
f 194/3/3 187/3/3 186/3/3
f 195/2/3 185/2/3 184/2/3
f 195/4/3 184/4/3 194/4/3
f 196/3/3 194/3/3 186/3/3
f 196/4/3 186/4/3 191/4/3
f 196/3/3 195/3/3 194/3/3
f 197/2/3 185/2/3 195/2/3
f 197/3/3 195/3/3 196/3/3
f 198/4/3 197/4/3 196/4/3
f 199/4/3 197/4/3 198/4/3
f 200/4/3 198/4/3 196/4/3
f 200/3/3 199/3/3 198/3/3
f 201/4/3 197/4/3 199/4/3
f 201/3/3 199/3/3 200/3/3
f 202/4/3 196/4/3 191/4/3
f 202/4/3 200/4/3 196/4/3
f 202/4/3 201/4/3 200/4/3
f 203/4/3 197/4/3 201/4/3
f 203/4/3 201/4/3 202/4/3
f 203/2/3 185/2/3 197/2/3
f 204/3/3 193/3/3 192/3/3
f 204/4/3 192/4/3 189/4/3
f 205/4/3 190/4/3 193/4/3
f 205/3/3 193/3/3 204/3/3
f 206/3/3 203/3/3 202/3/3
f 207/2/3 185/2/3 203/2/3
f 207/3/3 203/3/3 206/3/3
f 208/4/3 188/4/3 183/4/3
f 208/3/3 189/3/3 188/3/3
f 209/4/3 204/4/3 189/4/3
f 209/3/3 189/3/3 208/3/3
f 209/4/3 205/4/3 204/4/3
f 210/4/3 190/4/3 205/4/3
f 210/4/3 205/4/3 209/4/3
f 210/3/3 191/3/3 190/3/3
f 211/4/3 202/4/3 191/4/3
f 211/3/3 191/3/3 210/3/3
f 212/4/3 210/4/3 209/4/3
f 212/4/3 202/4/3 211/4/3
f 212/4/3 211/4/3 210/4/3
f 212/4/3 209/4/3 208/4/3
f 212/3/3 206/3/3 202/3/3
f 213/4/3 207/4/3 206/4/3
f 213/3/3 206/3/3 212/3/3
f 214/4/3 212/4/3 208/4/3
f 214/4/3 208/4/3 183/4/3
f 214/4/3 213/4/3 212/4/3
f 215/4/3 207/4/3 213/4/3
f 215/4/3 213/4/3 214/4/3
f 215/2/3 185/2/3 207/2/3
f 216/2/3 185/2/3 215/2/3
f 220/4/3 218/4/3 217/4/3
f 221/2/3 219/2/3 218/2/3
f 221/4/3 218/4/3 220/4/3
f 222/2/3 219/2/3 221/2/3
f 224/2/3 223/2/3 222/2/3
f 225/2/3 223/2/3 224/2/3
f 229/4/3 227/4/3 226/4/3
f 230/2/3 228/2/3 227/2/3
f 230/4/3 227/4/3 229/4/3
f 231/2/3 228/2/3 230/2/3
f 234/2/3 233/2/3 232/2/3
f 235/2/3 233/2/3 234/2/3
f 238/2/3 237/2/3 236/2/3
f 239/2/3 237/2/3 238/2/3
f 242/2/3 241/2/3 240/2/3
f 243/2/3 241/2/3 242/2/3
f 246/2/3 245/2/3 244/2/3
f 247/2/3 245/2/3 246/2/3
f 250/2/3 249/2/3 248/2/3
f 251/2/3 249/2/3 250/2/3
f 254/2/3 253/2/3 252/2/3
f 255/2/3 253/2/3 254/2/3
f 258/2/3 257/2/3 256/2/3
f 259/2/3 257/2/3 258/2/3
f 262/2/3 261/2/3 260/2/3
f 263/2/3 261/2/3 262/2/3
f 266/2/3 265/2/3 264/2/3
f 267/2/3 265/2/3 266/2/3
f 270/2/3 269/2/3 268/2/3
f 271/2/3 269/2/3 270/2/3
f 274/2/3 273/2/3 272/2/3
f 275/2/3 273/2/3 274/2/3
f 276/2/4 277/2/4 278/2/4
f 278/2/4 277/2/4 279/2/4
f 280/2/4 281/2/4 282/2/4
f 282/2/4 281/2/4 283/2/4
f 284/2/4 285/2/4 286/2/4
f 286/2/4 285/2/4 287/2/4
f 288/2/4 289/2/4 290/2/4
f 290/2/4 289/2/4 291/2/4
f 292/2/4 293/2/4 294/2/4
f 294/2/4 293/2/4 295/2/4
f 296/2/4 297/2/4 298/2/4
f 298/2/4 297/2/4 299/2/4
f 300/2/4 301/2/4 302/2/4
f 302/2/4 301/2/4 303/2/4
f 304/2/4 305/2/4 306/2/4
f 306/2/4 305/2/4 307/2/4
f 308/2/4 309/2/4 310/2/4
f 310/2/4 309/2/4 311/2/4
f 312/2/4 313/2/4 314/2/4
f 314/2/4 313/2/4 315/2/4
f 316/2/4 317/2/4 318/2/4
f 318/2/4 317/2/4 319/2/4
f 320/2/4 321/2/4 322/2/4
f 322/2/4 321/2/4 323/2/4
f 324/4/4 325/4/4 327/4/4
f 325/2/4 326/2/4 328/2/4
f 327/4/4 325/4/4 328/4/4
f 328/2/4 326/2/4 329/2/4
f 330/2/4 331/2/4 332/2/4
f 332/2/4 331/2/4 333/2/4
f 334/4/4 335/4/4 337/4/4
f 335/2/4 336/2/4 338/2/4
f 337/4/4 335/4/4 338/4/4
f 338/2/4 336/2/4 339/2/4
f 340/4/4 341/4/4 343/4/4
f 343/4/4 341/4/4 344/4/4
f 340/4/4 343/4/4 345/4/4
f 345/4/4 343/4/4 346/4/4
f 346/4/4 343/4/4 347/4/4
f 343/3/4 344/3/4 348/3/4
f 347/4/4 343/4/4 348/4/4
f 344/4/4 341/4/4 349/4/4
f 348/3/4 344/3/4 349/3/4
f 340/4/4 345/4/4 350/4/4
f 345/3/4 346/3/4 350/3/4
f 346/4/4 347/4/4 351/4/4
f 350/3/4 346/3/4 351/3/4
f 347/3/4 348/3/4 352/3/4
f 351/4/4 347/4/4 352/4/4
f 352/3/4 348/3/4 353/3/4
f 348/4/4 349/4/4 354/4/4
f 353/3/4 348/3/4 354/3/4
f 350/4/4 351/4/4 355/4/4
f 352/3/4 353/3/4 355/3/4
f 351/3/4 352/3/4 355/3/4
f 353/4/4 354/4/4 356/4/4
f 355/3/4 353/3/4 356/3/4
f 354/4/4 349/4/4 357/4/4
f 356/4/4 354/4/4 357/4/4
f 355/4/4 356/4/4 358/4/4
f 340/4/4 350/4/4 358/4/4
f 350/4/4 355/4/4 358/4/4
f 358/4/4 356/4/4 359/4/4
f 356/3/4 357/3/4 360/3/4
f 359/4/4 356/4/4 360/4/4
f 357/4/4 349/4/4 361/4/4
f 360/3/4 357/3/4 361/3/4
f 358/3/4 359/3/4 362/3/4
f 340/4/4 358/4/4 362/4/4
f 359/4/4 360/4/4 363/4/4
f 362/3/4 359/3/4 363/3/4
f 360/4/4 361/4/4 363/4/4
f 363/4/4 361/4/4 364/4/4
f 362/4/4 363/4/4 365/4/4
f 363/3/4 364/3/4 365/3/4
f 364/4/4 361/4/4 366/4/4
f 365/3/4 364/3/4 366/3/4
f 361/4/4 349/4/4 367/4/4
f 366/4/4 361/4/4 367/4/4
f 349/4/4 341/4/4 367/4/4
f 341/2/4 342/2/4 368/2/4
f 367/4/4 341/4/4 368/4/4
f 366/4/4 367/4/4 369/4/4
f 365/4/4 366/4/4 369/4/4
f 367/3/4 368/3/4 370/3/4
f 369/4/4 367/4/4 370/4/4
f 368/2/4 342/2/4 371/2/4
f 370/3/4 368/3/4 371/3/4
f 369/3/4 370/3/4 372/3/4
f 365/4/4 369/4/4 372/4/4
f 370/4/4 371/4/4 373/4/4
f 372/3/4 370/3/4 373/3/4
f 340/4/4 362/4/4 374/4/4
f 365/4/4 372/4/4 374/4/4
f 372/4/4 373/4/4 374/4/4
f 362/4/4 365/4/4 374/4/4
f 371/2/4 342/2/4 375/2/4
f 374/4/4 373/4/4 375/4/4
f 373/4/4 371/4/4 375/4/4
f 375/2/4 342/2/4 376/2/4
f 380/4/5 378/4/5 377/4/5
f 381/4/5 378/4/5 380/4/5
f 383/4/5 380/4/5 379/4/5
f 384/1/5 381/1/5 380/1/5
f 384/4/5 380/4/5 383/4/5
f 385/4/5 382/4/5 381/4/5
f 385/1/5 381/1/5 384/1/5
f 386/4/5 382/4/5 385/4/5
f 387/4/5 385/4/5 384/4/5
f 388/4/5 385/4/5 387/4/5
f 389/2/6 390/2/6 392/2/6
f 392/2/6 390/2/6 393/2/6
f 393/2/6 390/2/6 394/2/6
f 394/2/6 395/2/6 396/2/6
f 393/2/6 394/2/6 396/2/6
f 396/2/6 395/2/6 397/2/6
f 391/2/6 392/2/6 398/2/6
f 397/2/6 395/2/6 401/2/6
f 398/2/6 399/2/6 402/2/6
f 391/2/6 398/2/6 402/2/6
f 402/2/6 399/2/6 403/2/6
f 403/2/6 399/2/6 404/2/6
f 400/2/6 401/2/6 405/2/6
f 401/2/6 395/2/6 406/2/6
f 405/2/6 401/2/6 406/2/6
f 406/2/6 395/2/6 407/2/6
f 403/2/6 404/2/6 408/2/6
f 404/2/6 405/2/6 408/2/6
f 405/2/6 406/2/6 408/2/6
f 408/2/6 406/2/6 409/2/6
f 410/2/6 411/2/6 412/2/6
f 412/2/6 411/2/6 413/2/6
f 413/2/6 411/2/6 414/2/6
f 410/2/6 412/2/6 416/2/6
f 416/2/6 412/2/6 417/2/6
f 414/2/6 415/2/6 418/2/6
f 413/2/6 414/2/6 418/2/6
f 418/2/6 415/2/6 419/2/6
f 410/2/6 416/2/6 420/2/6
f 419/2/6 415/2/6 423/2/6
f 420/2/6 421/2/6 424/2/6
f 410/2/6 420/2/6 424/2/6
f 424/2/6 421/2/6 425/2/6
f 425/2/6 421/2/6 426/2/6
f 422/2/6 423/2/6 427/2/6
f 423/2/6 415/2/6 428/2/6
f 427/2/6 423/2/6 428/2/6
f 428/2/6 415/2/6 429/2/6
f 425/2/6 426/2/6 430/2/6
f 426/2/6 427/2/6 430/2/6
f 427/2/6 428/2/6 430/2/6
f 430/2/6 428/2/6 431/2/6
f 432/2/6 433/2/6 435/2/6
f 435/2/6 433/2/6 436/2/6
f 436/2/6 433/2/6 437/2/6
f 437/2/6 433/2/6 438/2/6
f 434/2/6 435/2/6 440/2/6
f 435/2/6 436/2/6 440/2/6
f 440/2/6 436/2/6 441/2/6
f 438/2/6 439/2/6 442/2/6
f 437/2/6 438/2/6 442/2/6
f 442/2/6 439/2/6 443/2/6
f 434/2/6 440/2/6 444/2/6
f 443/2/6 439/2/6 447/2/6
f 444/2/6 445/2/6 448/2/6
f 434/2/6 444/2/6 448/2/6
f 448/2/6 445/2/6 449/2/6
f 449/2/6 445/2/6 450/2/6
f 446/2/6 447/2/6 451/2/6
f 447/2/6 439/2/6 452/2/6
f 451/2/6 447/2/6 452/2/6
f 452/2/6 439/2/6 453/2/6
f 449/2/6 450/2/6 454/2/6
f 450/2/6 451/2/6 454/2/6
f 451/2/6 452/2/6 454/2/6
f 454/2/6 452/2/6 455/2/6
f 456/2/6 457/2/6 459/2/6
f 459/2/6 457/2/6 460/2/6
f 460/2/6 457/2/6 461/2/6
f 461/2/6 457/2/6 462/2/6
f 458/2/6 459/2/6 464/2/6
f 459/2/6 460/2/6 464/2/6
f 464/2/6 460/2/6 465/2/6
f 462/2/6 463/2/6 466/2/6
f 461/2/6 462/2/6 466/2/6
f 466/2/6 463/2/6 467/2/6
f 458/2/6 464/2/6 468/2/6
f 467/2/6 463/2/6 471/2/6
f 468/2/6 469/2/6 472/2/6
f 458/2/6 468/2/6 472/2/6
f 472/2/6 469/2/6 473/2/6
f 473/2/6 469/2/6 474/2/6
f 470/2/6 471/2/6 475/2/6
f 471/2/6 463/2/6 476/2/6
f 475/2/6 471/2/6 476/2/6
f 476/2/6 463/2/6 477/2/6
f 473/2/6 474/2/6 478/2/6
f 474/2/6 475/2/6 478/2/6
f 475/2/6 476/2/6 478/2/6
f 478/2/6 476/2/6 479/2/6
f 480/2/6 481/2/6 483/2/6
f 483/2/6 481/2/6 484/2/6
f 482/2/6 483/2/6 486/2/6
f 484/2/6 485/2/6 486/2/6
f 483/2/6 484/2/6 486/2/6
f 486/2/6 485/2/6 487/2/6
f 482/2/6 486/2/6 488/2/6
f 487/2/6 485/2/6 489/2/6
f 482/2/6 488/2/6 490/2/6
f 488/2/6 489/2/6 490/2/6
f 490/2/6 489/2/6 491/2/6
f 489/2/6 485/2/6 492/2/6
f 491/2/6 489/2/6 492/2/6
f 492/2/6 485/2/6 493/2/6
f 491/2/6 492/2/6 494/2/6
f 494/2/6 492/2/6 495/2/6
f 496/2/6 497/2/6 498/2/6
f 498/2/6 497/2/6 499/2/6
